<mxfile host="app.diagrams.net" agent="Mozilla/5.0 (X11; Linux x86_64) AppleWebKit/537.36 (KHTML, like Gecko) Chrome/122.0.0.0 Safari/537.36" version="26.0.10">
  <diagram name="Страница — 1" id="Y_9HnMrf31OsqtY-M8Ag">
    <mxGraphModel dx="2100" dy="2309" grid="1" gridSize="10" guides="1" tooltips="1" connect="1" arrows="1" fold="1" page="1" pageScale="1" pageWidth="827" pageHeight="1169" math="0" shadow="0">
      <root>
        <mxCell id="0" />
        <mxCell id="1" parent="0" />
        <mxCell id="q1A5jmSNmcc6hlyrnBnv-569" value="" style="rounded=1;whiteSpace=wrap;html=1;arcSize=7;" parent="1" vertex="1">
          <mxGeometry x="758.25" y="-167.14" width="411.75" height="727.14" as="geometry" />
        </mxCell>
        <mxCell id="q1A5jmSNmcc6hlyrnBnv-570" value="&lt;b&gt;&lt;font style=&quot;font-size: 20px;&quot;&gt;B.&lt;/font&gt;&lt;/b&gt;" style="text;html=1;align=left;verticalAlign=middle;whiteSpace=wrap;rounded=0;" parent="1" vertex="1">
          <mxGeometry x="768.75" y="-160" width="31.75" height="30" as="geometry" />
        </mxCell>
        <mxCell id="q1A5jmSNmcc6hlyrnBnv-188" value="" style="rounded=1;whiteSpace=wrap;html=1;dashed=1;strokeColor=#666666;" parent="1" vertex="1">
          <mxGeometry x="800.53" y="171" width="339.47" height="140" as="geometry" />
        </mxCell>
        <mxCell id="q1A5jmSNmcc6hlyrnBnv-191" value="" style="rounded=1;whiteSpace=wrap;html=1;" parent="1" vertex="1">
          <mxGeometry x="860" y="176" width="223.53" height="115" as="geometry" />
        </mxCell>
        <mxCell id="q1A5jmSNmcc6hlyrnBnv-108" value="&lt;b&gt;1. Initial graph: &lt;/b&gt;banned properties deleted" style="text;html=1;align=left;verticalAlign=middle;whiteSpace=wrap;rounded=0;" parent="1" vertex="1">
          <mxGeometry x="800.28" y="-160" width="288.97" height="30" as="geometry" />
        </mxCell>
        <mxCell id="q1A5jmSNmcc6hlyrnBnv-190" value="&lt;font style=&quot;color: rgb(102, 102, 102);&quot;&gt;Full graph G&lt;/font&gt;" style="text;html=1;align=center;verticalAlign=middle;whiteSpace=wrap;rounded=0;" parent="1" vertex="1">
          <mxGeometry x="902.5" y="291.88" width="125" height="19.12" as="geometry" />
        </mxCell>
        <mxCell id="q1A5jmSNmcc6hlyrnBnv-429" value="1" style="ellipse;whiteSpace=wrap;html=1;aspect=fixed;" parent="1" vertex="1">
          <mxGeometry x="950" y="-130" width="30" height="30" as="geometry" />
        </mxCell>
        <mxCell id="q1A5jmSNmcc6hlyrnBnv-430" value="2" style="ellipse;whiteSpace=wrap;html=1;aspect=fixed;" parent="1" vertex="1">
          <mxGeometry x="872.5" y="-130" width="30" height="30" as="geometry" />
        </mxCell>
        <mxCell id="q1A5jmSNmcc6hlyrnBnv-431" style="rounded=0;orthogonalLoop=1;jettySize=auto;html=1;exitX=0.5;exitY=0;exitDx=0;exitDy=0;entryX=0.5;entryY=1;entryDx=0;entryDy=0;endArrow=classic;startFill=0;endFill=1;fontColor=#000000;" parent="1" source="q1A5jmSNmcc6hlyrnBnv-433" target="q1A5jmSNmcc6hlyrnBnv-430" edge="1">
          <mxGeometry relative="1" as="geometry">
            <mxPoint x="875" y="-35" as="sourcePoint" />
            <mxPoint x="932.5" y="-39" as="targetPoint" />
          </mxGeometry>
        </mxCell>
        <mxCell id="q1A5jmSNmcc6hlyrnBnv-432" value="6" style="ellipse;whiteSpace=wrap;html=1;aspect=fixed;" parent="1" vertex="1">
          <mxGeometry x="1103.75" y="-55" width="30" height="30" as="geometry" />
        </mxCell>
        <mxCell id="q1A5jmSNmcc6hlyrnBnv-433" value="3" style="ellipse;whiteSpace=wrap;html=1;aspect=fixed;" parent="1" vertex="1">
          <mxGeometry x="872.5" y="-55" width="30" height="30" as="geometry" />
        </mxCell>
        <mxCell id="q1A5jmSNmcc6hlyrnBnv-434" value="4" style="ellipse;whiteSpace=wrap;html=1;aspect=fixed;" parent="1" vertex="1">
          <mxGeometry x="950" y="-55" width="30" height="30" as="geometry" />
        </mxCell>
        <mxCell id="q1A5jmSNmcc6hlyrnBnv-435" value="5" style="ellipse;whiteSpace=wrap;html=1;aspect=fixed;" parent="1" vertex="1">
          <mxGeometry x="1026.75" y="-55" width="30" height="30" as="geometry" />
        </mxCell>
        <mxCell id="q1A5jmSNmcc6hlyrnBnv-436" value="7" style="ellipse;whiteSpace=wrap;html=1;aspect=fixed;" parent="1" vertex="1">
          <mxGeometry x="1103.75" y="-130" width="30" height="30" as="geometry" />
        </mxCell>
        <mxCell id="q1A5jmSNmcc6hlyrnBnv-437" value="8" style="ellipse;whiteSpace=wrap;html=1;aspect=fixed;" parent="1" vertex="1">
          <mxGeometry x="803.75" y="-55" width="30" height="30" as="geometry" />
        </mxCell>
        <mxCell id="q1A5jmSNmcc6hlyrnBnv-438" style="rounded=0;orthogonalLoop=1;jettySize=auto;html=1;exitX=0;exitY=0.5;exitDx=0;exitDy=0;entryX=1;entryY=0.5;entryDx=0;entryDy=0;endArrow=classic;startFill=0;endFill=1;fontColor=#000000;" parent="1" source="q1A5jmSNmcc6hlyrnBnv-434" target="q1A5jmSNmcc6hlyrnBnv-433" edge="1">
          <mxGeometry relative="1" as="geometry">
            <mxPoint x="954.380000000004" y="5" as="sourcePoint" />
            <mxPoint x="892.5000000000032" y="-17.5" as="targetPoint" />
          </mxGeometry>
        </mxCell>
        <mxCell id="q1A5jmSNmcc6hlyrnBnv-439" style="rounded=0;orthogonalLoop=1;jettySize=auto;html=1;exitX=0;exitY=0.5;exitDx=0;exitDy=0;entryX=1;entryY=0.5;entryDx=0;entryDy=0;endArrow=classic;startFill=0;endFill=1;fontColor=#000000;" parent="1" source="q1A5jmSNmcc6hlyrnBnv-435" target="q1A5jmSNmcc6hlyrnBnv-434" edge="1">
          <mxGeometry relative="1" as="geometry">
            <mxPoint x="1061.5012626584812" y="-10.251262658481323" as="sourcePoint" />
            <mxPoint x="1024.3799999999958" y="5" as="targetPoint" />
          </mxGeometry>
        </mxCell>
        <mxCell id="q1A5jmSNmcc6hlyrnBnv-440" style="rounded=0;orthogonalLoop=1;jettySize=auto;html=1;exitX=1;exitY=0.5;exitDx=0;exitDy=0;entryX=0;entryY=0.5;entryDx=0;entryDy=0;endArrow=classic;startFill=0;endFill=1;fontColor=#000000;" parent="1" source="q1A5jmSNmcc6hlyrnBnv-435" target="q1A5jmSNmcc6hlyrnBnv-432" edge="1">
          <mxGeometry relative="1" as="geometry">
            <mxPoint x="1110.9987373415183" y="-59.74873734151845" as="sourcePoint" />
            <mxPoint x="892.5" y="-29" as="targetPoint" />
          </mxGeometry>
        </mxCell>
        <mxCell id="q1A5jmSNmcc6hlyrnBnv-441" style="rounded=0;orthogonalLoop=1;jettySize=auto;html=1;exitX=0.5;exitY=1;exitDx=0;exitDy=0;entryX=0.5;entryY=0;entryDx=0;entryDy=0;endArrow=classic;startFill=0;endFill=1;fontColor=#000000;" parent="1" source="q1A5jmSNmcc6hlyrnBnv-436" target="q1A5jmSNmcc6hlyrnBnv-432" edge="1">
          <mxGeometry relative="1" as="geometry">
            <mxPoint x="1197.5" y="35" as="sourcePoint" />
            <mxPoint x="902.5" y="-19" as="targetPoint" />
          </mxGeometry>
        </mxCell>
        <mxCell id="q1A5jmSNmcc6hlyrnBnv-442" style="rounded=0;orthogonalLoop=1;jettySize=auto;html=1;exitX=1;exitY=0.5;exitDx=0;exitDy=0;entryX=0;entryY=0.5;entryDx=0;entryDy=0;endArrow=classic;startFill=0;endFill=1;fontColor=#000000;" parent="1" source="q1A5jmSNmcc6hlyrnBnv-437" target="q1A5jmSNmcc6hlyrnBnv-433" edge="1">
          <mxGeometry relative="1" as="geometry">
            <mxPoint x="862.5" y="-30" as="sourcePoint" />
            <mxPoint x="918.5" y="-50" as="targetPoint" />
          </mxGeometry>
        </mxCell>
        <mxCell id="q1A5jmSNmcc6hlyrnBnv-443" style="rounded=0;orthogonalLoop=1;jettySize=auto;html=1;entryX=0.5;entryY=0;entryDx=0;entryDy=0;endArrow=classic;startFill=0;exitX=0.5;exitY=1;exitDx=0;exitDy=0;endFill=1;fontColor=#000000;" parent="1" source="q1A5jmSNmcc6hlyrnBnv-429" target="q1A5jmSNmcc6hlyrnBnv-434" edge="1">
          <mxGeometry relative="1" as="geometry">
            <mxPoint x="987.5" y="-90" as="sourcePoint" />
            <mxPoint x="989.3800000000001" y="-30" as="targetPoint" />
          </mxGeometry>
        </mxCell>
        <mxCell id="q1A5jmSNmcc6hlyrnBnv-444" style="rounded=0;orthogonalLoop=1;jettySize=auto;html=1;exitX=0;exitY=0.5;exitDx=0;exitDy=0;entryX=1;entryY=0.5;entryDx=0;entryDy=0;endArrow=classic;startFill=0;endFill=1;fontColor=#000000;" parent="1" source="q1A5jmSNmcc6hlyrnBnv-429" target="q1A5jmSNmcc6hlyrnBnv-430" edge="1">
          <mxGeometry relative="1" as="geometry" />
        </mxCell>
        <mxCell id="q1A5jmSNmcc6hlyrnBnv-445" value="b" style="text;html=1;align=center;verticalAlign=middle;whiteSpace=wrap;rounded=0;" parent="1" vertex="1">
          <mxGeometry x="966.75" y="-86.25" width="12.56" height="18.75" as="geometry" />
        </mxCell>
        <mxCell id="q1A5jmSNmcc6hlyrnBnv-446" value="a" style="text;html=1;align=center;verticalAlign=middle;whiteSpace=wrap;rounded=0;" parent="1" vertex="1">
          <mxGeometry x="916.3800000000001" y="-130" width="20" height="18.75" as="geometry" />
        </mxCell>
        <mxCell id="q1A5jmSNmcc6hlyrnBnv-447" value="d" style="text;html=1;align=center;verticalAlign=middle;whiteSpace=wrap;rounded=0;rotation=0;" parent="1" vertex="1">
          <mxGeometry x="887.3800000000001" y="-93.12" width="15.12" height="30" as="geometry" />
        </mxCell>
        <mxCell id="q1A5jmSNmcc6hlyrnBnv-448" value="d" style="text;html=1;align=center;verticalAlign=middle;whiteSpace=wrap;rounded=0;rotation=0;" parent="1" vertex="1">
          <mxGeometry x="916.3800000000001" y="-61.870000000000005" width="20" height="30" as="geometry" />
        </mxCell>
        <mxCell id="q1A5jmSNmcc6hlyrnBnv-449" value="b" style="text;html=1;align=center;verticalAlign=middle;whiteSpace=wrap;rounded=0;rotation=0;" parent="1" vertex="1">
          <mxGeometry x="838.1200000000001" y="-61.870000000000005" width="18.25" height="30" as="geometry" />
        </mxCell>
        <mxCell id="q1A5jmSNmcc6hlyrnBnv-450" value="a" style="text;html=1;align=center;verticalAlign=middle;whiteSpace=wrap;rounded=0;rotation=0;" parent="1" vertex="1">
          <mxGeometry x="992.6300000000001" y="-63.120000000000005" width="20" height="30" as="geometry" />
        </mxCell>
        <mxCell id="q1A5jmSNmcc6hlyrnBnv-451" value="a" style="text;html=1;align=center;verticalAlign=middle;whiteSpace=wrap;rounded=0;rotation=0;" parent="1" vertex="1">
          <mxGeometry x="1124.5" y="-93.12" width="9.25" height="30" as="geometry" />
        </mxCell>
        <mxCell id="q1A5jmSNmcc6hlyrnBnv-452" value="b" style="text;html=1;align=center;verticalAlign=middle;whiteSpace=wrap;rounded=0;rotation=0;" parent="1" vertex="1">
          <mxGeometry x="1069.25" y="-61.870000000000005" width="13.25" height="30" as="geometry" />
        </mxCell>
        <mxCell id="q1A5jmSNmcc6hlyrnBnv-154" value="&lt;b&gt;2. Extended graph: &lt;/b&gt;reversed properties added" style="text;html=1;align=left;verticalAlign=middle;whiteSpace=wrap;rounded=0;" parent="1" vertex="1">
          <mxGeometry x="800.28" y="-22" width="320.75" height="30" as="geometry" />
        </mxCell>
        <mxCell id="q1A5jmSNmcc6hlyrnBnv-340" value="1" style="ellipse;whiteSpace=wrap;html=1;aspect=fixed;fontColor=default;" parent="1" vertex="1">
          <mxGeometry x="950" y="7" width="30" height="30" as="geometry" />
        </mxCell>
        <mxCell id="q1A5jmSNmcc6hlyrnBnv-341" value="2" style="ellipse;whiteSpace=wrap;html=1;aspect=fixed;fontColor=default;" parent="1" vertex="1">
          <mxGeometry x="872.5" y="7" width="30" height="30" as="geometry" />
        </mxCell>
        <mxCell id="q1A5jmSNmcc6hlyrnBnv-342" style="rounded=0;orthogonalLoop=1;jettySize=auto;html=1;exitX=0.5;exitY=0;exitDx=0;exitDy=0;entryX=0.5;entryY=1;entryDx=0;entryDy=0;endArrow=classic;startFill=0;endFill=1;fontColor=default;" parent="1" source="q1A5jmSNmcc6hlyrnBnv-346" target="q1A5jmSNmcc6hlyrnBnv-341" edge="1">
          <mxGeometry relative="1" as="geometry">
            <mxPoint x="875" y="102" as="sourcePoint" />
            <mxPoint x="932.5" y="98" as="targetPoint" />
          </mxGeometry>
        </mxCell>
        <mxCell id="q1A5jmSNmcc6hlyrnBnv-343" value="6" style="ellipse;whiteSpace=wrap;html=1;aspect=fixed;fontColor=default;" parent="1" vertex="1">
          <mxGeometry x="1103.75" y="82" width="30" height="30" as="geometry" />
        </mxCell>
        <mxCell id="q1A5jmSNmcc6hlyrnBnv-346" value="3" style="ellipse;whiteSpace=wrap;html=1;aspect=fixed;fontColor=default;" parent="1" vertex="1">
          <mxGeometry x="872.5" y="82" width="30" height="30" as="geometry" />
        </mxCell>
        <mxCell id="q1A5jmSNmcc6hlyrnBnv-347" value="4" style="ellipse;whiteSpace=wrap;html=1;aspect=fixed;fontColor=default;" parent="1" vertex="1">
          <mxGeometry x="950" y="82" width="30" height="30" as="geometry" />
        </mxCell>
        <mxCell id="q1A5jmSNmcc6hlyrnBnv-348" value="5" style="ellipse;whiteSpace=wrap;html=1;aspect=fixed;fontColor=default;" parent="1" vertex="1">
          <mxGeometry x="1026.75" y="82" width="30" height="30" as="geometry" />
        </mxCell>
        <mxCell id="q1A5jmSNmcc6hlyrnBnv-349" value="7" style="ellipse;whiteSpace=wrap;html=1;aspect=fixed;fontColor=default;" parent="1" vertex="1">
          <mxGeometry x="1103.75" y="7" width="30" height="30" as="geometry" />
        </mxCell>
        <mxCell id="q1A5jmSNmcc6hlyrnBnv-350" value="8" style="ellipse;whiteSpace=wrap;html=1;aspect=fixed;fontColor=default;" parent="1" vertex="1">
          <mxGeometry x="803.75" y="82" width="30" height="30" as="geometry" />
        </mxCell>
        <mxCell id="q1A5jmSNmcc6hlyrnBnv-351" style="rounded=0;orthogonalLoop=1;jettySize=auto;html=1;exitX=0;exitY=0.5;exitDx=0;exitDy=0;entryX=1;entryY=0.5;entryDx=0;entryDy=0;endArrow=classic;startFill=0;endFill=1;fontColor=default;" parent="1" source="q1A5jmSNmcc6hlyrnBnv-347" target="q1A5jmSNmcc6hlyrnBnv-346" edge="1">
          <mxGeometry relative="1" as="geometry">
            <mxPoint x="954.380000000004" y="142" as="sourcePoint" />
            <mxPoint x="892.5000000000032" y="119.5" as="targetPoint" />
          </mxGeometry>
        </mxCell>
        <mxCell id="q1A5jmSNmcc6hlyrnBnv-352" style="rounded=0;orthogonalLoop=1;jettySize=auto;html=1;exitX=0;exitY=0.5;exitDx=0;exitDy=0;entryX=1;entryY=0.5;entryDx=0;entryDy=0;endArrow=classic;startFill=0;endFill=1;fontColor=default;" parent="1" source="q1A5jmSNmcc6hlyrnBnv-348" target="q1A5jmSNmcc6hlyrnBnv-347" edge="1">
          <mxGeometry relative="1" as="geometry">
            <mxPoint x="1061.5012626584812" y="126.74873734151868" as="sourcePoint" />
            <mxPoint x="1024.3799999999958" y="142" as="targetPoint" />
          </mxGeometry>
        </mxCell>
        <mxCell id="q1A5jmSNmcc6hlyrnBnv-353" style="rounded=0;orthogonalLoop=1;jettySize=auto;html=1;exitX=1;exitY=0.5;exitDx=0;exitDy=0;entryX=0;entryY=0.5;entryDx=0;entryDy=0;endArrow=classic;startFill=0;endFill=1;fontColor=default;" parent="1" source="q1A5jmSNmcc6hlyrnBnv-348" target="q1A5jmSNmcc6hlyrnBnv-343" edge="1">
          <mxGeometry relative="1" as="geometry">
            <mxPoint x="1110.9987373415183" y="77.25126265848155" as="sourcePoint" />
            <mxPoint x="892.5" y="108" as="targetPoint" />
          </mxGeometry>
        </mxCell>
        <mxCell id="q1A5jmSNmcc6hlyrnBnv-354" style="rounded=0;orthogonalLoop=1;jettySize=auto;html=1;exitX=0.5;exitY=1;exitDx=0;exitDy=0;entryX=0.5;entryY=0;entryDx=0;entryDy=0;endArrow=classic;startFill=0;endFill=1;fontColor=default;" parent="1" source="q1A5jmSNmcc6hlyrnBnv-349" target="q1A5jmSNmcc6hlyrnBnv-343" edge="1">
          <mxGeometry relative="1" as="geometry">
            <mxPoint x="1197.5" y="172" as="sourcePoint" />
            <mxPoint x="902.5" y="118" as="targetPoint" />
          </mxGeometry>
        </mxCell>
        <mxCell id="q1A5jmSNmcc6hlyrnBnv-355" style="rounded=0;orthogonalLoop=1;jettySize=auto;html=1;exitX=1;exitY=0.5;exitDx=0;exitDy=0;entryX=0;entryY=0.5;entryDx=0;entryDy=0;endArrow=classic;startFill=0;endFill=1;fontColor=default;" parent="1" source="q1A5jmSNmcc6hlyrnBnv-350" target="q1A5jmSNmcc6hlyrnBnv-346" edge="1">
          <mxGeometry relative="1" as="geometry">
            <mxPoint x="862.5" y="107" as="sourcePoint" />
            <mxPoint x="918.5" y="87" as="targetPoint" />
          </mxGeometry>
        </mxCell>
        <mxCell id="q1A5jmSNmcc6hlyrnBnv-356" style="rounded=0;orthogonalLoop=1;jettySize=auto;html=1;entryX=0.5;entryY=0;entryDx=0;entryDy=0;endArrow=classic;startFill=0;exitX=0.5;exitY=1;exitDx=0;exitDy=0;endFill=1;fontColor=default;" parent="1" source="q1A5jmSNmcc6hlyrnBnv-340" target="q1A5jmSNmcc6hlyrnBnv-347" edge="1">
          <mxGeometry relative="1" as="geometry">
            <mxPoint x="987.5" y="47" as="sourcePoint" />
            <mxPoint x="989.3800000000001" y="107" as="targetPoint" />
          </mxGeometry>
        </mxCell>
        <mxCell id="q1A5jmSNmcc6hlyrnBnv-357" style="rounded=0;orthogonalLoop=1;jettySize=auto;html=1;exitX=0;exitY=0.5;exitDx=0;exitDy=0;entryX=1;entryY=0.5;entryDx=0;entryDy=0;endArrow=classic;startFill=0;endFill=1;fontColor=default;" parent="1" source="q1A5jmSNmcc6hlyrnBnv-340" target="q1A5jmSNmcc6hlyrnBnv-341" edge="1">
          <mxGeometry relative="1" as="geometry" />
        </mxCell>
        <mxCell id="q1A5jmSNmcc6hlyrnBnv-359" value="b" style="text;html=1;align=center;verticalAlign=middle;whiteSpace=wrap;rounded=0;fontColor=default;" parent="1" vertex="1">
          <mxGeometry x="966.75" y="50.75" width="12.56" height="18.75" as="geometry" />
        </mxCell>
        <mxCell id="q1A5jmSNmcc6hlyrnBnv-360" value="a" style="text;html=1;align=center;verticalAlign=middle;whiteSpace=wrap;rounded=0;fontColor=default;" parent="1" vertex="1">
          <mxGeometry x="916.3800000000001" y="7" width="20" height="18.75" as="geometry" />
        </mxCell>
        <mxCell id="q1A5jmSNmcc6hlyrnBnv-361" value="d" style="text;html=1;align=center;verticalAlign=middle;whiteSpace=wrap;rounded=0;rotation=0;fontColor=default;" parent="1" vertex="1">
          <mxGeometry x="887.3800000000001" y="43.879999999999995" width="15.12" height="30" as="geometry" />
        </mxCell>
        <mxCell id="q1A5jmSNmcc6hlyrnBnv-362" value="d" style="text;html=1;align=center;verticalAlign=middle;whiteSpace=wrap;rounded=0;rotation=0;fontColor=default;" parent="1" vertex="1">
          <mxGeometry x="916.3800000000001" y="75.13" width="20" height="30" as="geometry" />
        </mxCell>
        <mxCell id="q1A5jmSNmcc6hlyrnBnv-363" value="b" style="text;html=1;align=center;verticalAlign=middle;whiteSpace=wrap;rounded=0;rotation=0;fontColor=default;" parent="1" vertex="1">
          <mxGeometry x="838.1200000000001" y="75.13" width="18.25" height="30" as="geometry" />
        </mxCell>
        <mxCell id="q1A5jmSNmcc6hlyrnBnv-364" value="a" style="text;html=1;align=center;verticalAlign=middle;whiteSpace=wrap;rounded=0;rotation=0;fontColor=default;" parent="1" vertex="1">
          <mxGeometry x="992.6300000000001" y="73.88" width="20" height="30" as="geometry" />
        </mxCell>
        <mxCell id="q1A5jmSNmcc6hlyrnBnv-365" value="a" style="text;html=1;align=center;verticalAlign=middle;whiteSpace=wrap;rounded=0;rotation=0;fontColor=default;" parent="1" vertex="1">
          <mxGeometry x="1124.5" y="43.879999999999995" width="9.25" height="30" as="geometry" />
        </mxCell>
        <mxCell id="q1A5jmSNmcc6hlyrnBnv-366" value="b" style="text;html=1;align=center;verticalAlign=middle;whiteSpace=wrap;rounded=0;rotation=0;fontColor=default;" parent="1" vertex="1">
          <mxGeometry x="1069.25" y="75.13" width="13.25" height="30" as="geometry" />
        </mxCell>
        <mxCell id="q1A5jmSNmcc6hlyrnBnv-367" style="rounded=0;orthogonalLoop=1;jettySize=auto;html=1;exitX=1;exitY=0.5;exitDx=0;exitDy=0;curved=1;entryX=0;entryY=0.5;entryDx=0;entryDy=0;fontColor=default;" parent="1" source="q1A5jmSNmcc6hlyrnBnv-341" target="q1A5jmSNmcc6hlyrnBnv-340" edge="1">
          <mxGeometry relative="1" as="geometry">
            <mxPoint x="912.4999999999998" y="-30.5" as="sourcePoint" />
            <mxPoint x="902.5" y="-20.5" as="targetPoint" />
            <Array as="points">
              <mxPoint x="922.5" y="39.5" />
            </Array>
          </mxGeometry>
        </mxCell>
        <mxCell id="q1A5jmSNmcc6hlyrnBnv-368" style="rounded=0;orthogonalLoop=1;jettySize=auto;html=1;exitX=0;exitY=0.5;exitDx=0;exitDy=0;curved=1;entryX=1;entryY=0.5;entryDx=0;entryDy=0;fontColor=default;" parent="1" source="q1A5jmSNmcc6hlyrnBnv-346" target="q1A5jmSNmcc6hlyrnBnv-350" edge="1">
          <mxGeometry relative="1" as="geometry">
            <mxPoint x="885.8800000000001" y="119.5" as="sourcePoint" />
            <mxPoint x="833.75" y="119.5" as="targetPoint" />
            <Array as="points">
              <mxPoint x="852.5" y="109.5" />
            </Array>
          </mxGeometry>
        </mxCell>
        <mxCell id="q1A5jmSNmcc6hlyrnBnv-369" style="rounded=0;orthogonalLoop=1;jettySize=auto;html=1;exitX=1;exitY=0.5;exitDx=0;exitDy=0;curved=1;entryX=0;entryY=0.5;entryDx=0;entryDy=0;fontColor=default;" parent="1" source="q1A5jmSNmcc6hlyrnBnv-346" target="q1A5jmSNmcc6hlyrnBnv-347" edge="1">
          <mxGeometry relative="1" as="geometry">
            <mxPoint x="902" y="129.5" as="sourcePoint" />
            <mxPoint x="950" y="129.5" as="targetPoint" />
            <Array as="points">
              <mxPoint x="922.5" y="109.5" />
            </Array>
          </mxGeometry>
        </mxCell>
        <mxCell id="q1A5jmSNmcc6hlyrnBnv-370" style="rounded=0;orthogonalLoop=1;jettySize=auto;html=1;exitX=1;exitY=0.5;exitDx=0;exitDy=0;curved=1;entryX=0;entryY=0.5;entryDx=0;entryDy=0;fontColor=default;" parent="1" source="q1A5jmSNmcc6hlyrnBnv-347" edge="1">
          <mxGeometry relative="1" as="geometry">
            <mxPoint x="980" y="97.5" as="sourcePoint" />
            <mxPoint x="1028" y="97.5" as="targetPoint" />
            <Array as="points">
              <mxPoint x="1000" y="109.5" />
            </Array>
          </mxGeometry>
        </mxCell>
        <mxCell id="q1A5jmSNmcc6hlyrnBnv-373" style="rounded=0;orthogonalLoop=1;jettySize=auto;html=1;exitX=0;exitY=0.5;exitDx=0;exitDy=0;curved=1;entryX=1;entryY=0.5;entryDx=0;entryDy=0;fontColor=default;" parent="1" target="q1A5jmSNmcc6hlyrnBnv-348" edge="1">
          <mxGeometry relative="1" as="geometry">
            <mxPoint x="1103.75" y="97.5" as="sourcePoint" />
            <mxPoint x="1064.75" y="97.5" as="targetPoint" />
            <Array as="points">
              <mxPoint x="1082.5" y="109.5" />
            </Array>
          </mxGeometry>
        </mxCell>
        <mxCell id="q1A5jmSNmcc6hlyrnBnv-374" style="rounded=0;orthogonalLoop=1;jettySize=auto;html=1;exitX=0.5;exitY=0;exitDx=0;exitDy=0;curved=1;entryX=0.5;entryY=1;entryDx=0;entryDy=0;fontColor=default;" parent="1" source="q1A5jmSNmcc6hlyrnBnv-347" target="q1A5jmSNmcc6hlyrnBnv-340" edge="1">
          <mxGeometry relative="1" as="geometry">
            <mxPoint x="892.5" y="117.5" as="sourcePoint" />
            <mxPoint x="853.5" y="117.5" as="targetPoint" />
            <Array as="points">
              <mxPoint x="952.5" y="59.5" />
            </Array>
          </mxGeometry>
        </mxCell>
        <mxCell id="q1A5jmSNmcc6hlyrnBnv-375" style="rounded=0;orthogonalLoop=1;jettySize=auto;html=1;exitX=0.5;exitY=1;exitDx=0;exitDy=0;curved=1;entryX=0.5;entryY=0;entryDx=0;entryDy=0;fontColor=default;" parent="1" source="q1A5jmSNmcc6hlyrnBnv-341" target="q1A5jmSNmcc6hlyrnBnv-346" edge="1">
          <mxGeometry relative="1" as="geometry">
            <mxPoint x="975.5" y="92.5" as="sourcePoint" />
            <mxPoint x="975.5" y="47.5" as="targetPoint" />
            <Array as="points">
              <mxPoint x="872.5" y="59.5" />
            </Array>
          </mxGeometry>
        </mxCell>
        <mxCell id="q1A5jmSNmcc6hlyrnBnv-377" value="&lt;p style=&quot;line-height: 50%;&quot;&gt;&lt;font&gt;&lt;span style=&quot;font-size: 7px;&quot;&gt;reversed b&lt;/span&gt;&lt;/font&gt;&lt;/p&gt;" style="text;html=1;align=center;verticalAlign=middle;whiteSpace=wrap;rounded=0;rotation=-75;fontColor=default;" parent="1" vertex="1">
          <mxGeometry x="919.31" y="50.75" width="60" height="15" as="geometry" />
        </mxCell>
        <mxCell id="q1A5jmSNmcc6hlyrnBnv-378" value="&lt;p style=&quot;line-height: 50%;&quot;&gt;&lt;font&gt;&lt;span style=&quot;font-size: 7px;&quot;&gt;reversed b&lt;/span&gt;&lt;/font&gt;&lt;/p&gt;" style="text;html=1;align=center;verticalAlign=middle;whiteSpace=wrap;rounded=0;fontColor=default;" parent="1" vertex="1">
          <mxGeometry x="827.3800000000001" y="103.88" width="60" height="15" as="geometry" />
        </mxCell>
        <mxCell id="q1A5jmSNmcc6hlyrnBnv-379" value="&lt;p style=&quot;line-height: 50%;&quot;&gt;&lt;font&gt;&lt;span style=&quot;font-size: 7px;&quot;&gt;reversed b&lt;/span&gt;&lt;/font&gt;&lt;/p&gt;" style="text;html=1;align=center;verticalAlign=middle;whiteSpace=wrap;rounded=0;fontColor=default;" parent="1" vertex="1">
          <mxGeometry x="1056.75" y="103.88" width="60" height="15" as="geometry" />
        </mxCell>
        <mxCell id="q1A5jmSNmcc6hlyrnBnv-380" value="&lt;p style=&quot;line-height: 50%;&quot;&gt;&lt;font&gt;&lt;span style=&quot;font-size: 7px;&quot;&gt;reversed a&lt;/span&gt;&lt;/font&gt;&lt;/p&gt;" style="text;html=1;align=center;verticalAlign=middle;whiteSpace=wrap;rounded=0;fontColor=default;" parent="1" vertex="1">
          <mxGeometry x="980" y="103.88" width="60" height="15" as="geometry" />
        </mxCell>
        <mxCell id="q1A5jmSNmcc6hlyrnBnv-381" value="&lt;p style=&quot;line-height: 50%;&quot;&gt;&lt;font&gt;&lt;span style=&quot;font-size: 7px;&quot;&gt;reversed d&lt;/span&gt;&lt;/font&gt;&lt;/p&gt;" style="text;html=1;align=center;verticalAlign=middle;whiteSpace=wrap;rounded=0;fontColor=default;" parent="1" vertex="1">
          <mxGeometry x="896.3800000000001" y="103.88" width="60" height="15" as="geometry" />
        </mxCell>
        <mxCell id="q1A5jmSNmcc6hlyrnBnv-382" value="&lt;p style=&quot;line-height: 50%;&quot;&gt;&lt;font&gt;&lt;span style=&quot;font-size: 7px;&quot;&gt;reversed d&lt;/span&gt;&lt;/font&gt;&lt;/p&gt;" style="text;html=1;align=center;verticalAlign=middle;whiteSpace=wrap;rounded=0;rotation=-75;fontColor=default;" parent="1" vertex="1">
          <mxGeometry x="842.5" y="50.75" width="60" height="15" as="geometry" />
        </mxCell>
        <mxCell id="q1A5jmSNmcc6hlyrnBnv-383" value="&lt;p style=&quot;line-height: 50%;&quot;&gt;&lt;font&gt;&lt;span style=&quot;font-size: 7px;&quot;&gt;reversed a&lt;/span&gt;&lt;/font&gt;&lt;/p&gt;" style="text;html=1;align=center;verticalAlign=middle;whiteSpace=wrap;rounded=0;fontColor=default;" parent="1" vertex="1">
          <mxGeometry x="896.3800000000001" y="28.879999999999995" width="60" height="15" as="geometry" />
        </mxCell>
        <mxCell id="q1A5jmSNmcc6hlyrnBnv-384" value="&lt;p style=&quot;line-height: 50%;&quot;&gt;&lt;font&gt;&lt;span style=&quot;font-size: 7px;&quot;&gt;reversed a&lt;/span&gt;&lt;/font&gt;&lt;/p&gt;" style="text;html=1;align=center;verticalAlign=middle;whiteSpace=wrap;rounded=0;rotation=-60;fontColor=default;" parent="1" vertex="1">
          <mxGeometry x="1069.25" y="50.75" width="60" height="15" as="geometry" />
        </mxCell>
        <mxCell id="q1A5jmSNmcc6hlyrnBnv-385" style="rounded=0;orthogonalLoop=1;jettySize=auto;html=1;exitX=0.5;exitY=0;exitDx=0;exitDy=0;curved=1;entryX=0.5;entryY=1;entryDx=0;entryDy=0;fontColor=default;" parent="1" source="q1A5jmSNmcc6hlyrnBnv-343" target="q1A5jmSNmcc6hlyrnBnv-349" edge="1">
          <mxGeometry relative="1" as="geometry">
            <mxPoint x="912.5" y="32.5" as="sourcePoint" />
            <mxPoint x="960.5" y="32.5" as="targetPoint" />
            <Array as="points">
              <mxPoint x="1102.5" y="59.5" />
            </Array>
          </mxGeometry>
        </mxCell>
        <mxCell id="q1A5jmSNmcc6hlyrnBnv-470" value="&lt;b&gt;3. Select subgraph, using BFS:&amp;nbsp;&lt;/b&gt;&lt;div&gt;&lt;span style=&quot;background-color: transparent;&quot;&gt;- from randomly selected node (here - `1`),&amp;nbsp;&lt;/span&gt;&lt;/div&gt;&lt;div&gt;&lt;span style=&quot;background-color: transparent;&quot;&gt;- depth (amount of hops) here = 2&lt;/span&gt;&lt;/div&gt;" style="text;html=1;align=left;verticalAlign=middle;whiteSpace=wrap;rounded=0;" parent="1" vertex="1">
          <mxGeometry x="800.28" y="113.88" width="370.22" height="65" as="geometry" />
        </mxCell>
        <mxCell id="q1A5jmSNmcc6hlyrnBnv-471" value="&lt;b&gt;4. Create sequence by traversing subgraph:&amp;nbsp;&lt;/b&gt;&lt;div&gt;remember to check the uniqueness of &amp;lt;node+edge&amp;gt;&amp;nbsp;&lt;div&gt;&lt;div&gt;Stop when:&lt;/div&gt;&lt;div&gt;- # edges in sequence &amp;gt; predefined limit&amp;nbsp;&lt;/div&gt;&lt;div&gt;- no valid neighbors&lt;/div&gt;&lt;/div&gt;&lt;/div&gt;" style="text;html=1;align=left;verticalAlign=middle;whiteSpace=wrap;rounded=0;" parent="1" vertex="1">
          <mxGeometry x="800.28" y="321" width="370.75" height="65" as="geometry" />
        </mxCell>
        <mxCell id="q1A5jmSNmcc6hlyrnBnv-496" value="1" style="ellipse;whiteSpace=wrap;html=1;aspect=fixed;" parent="1" vertex="1">
          <mxGeometry x="949.78" y="179.81999999999994" width="30" height="30" as="geometry" />
        </mxCell>
        <mxCell id="q1A5jmSNmcc6hlyrnBnv-497" value="2" style="ellipse;whiteSpace=wrap;html=1;aspect=fixed;" parent="1" vertex="1">
          <mxGeometry x="872.28" y="179.81999999999994" width="30" height="30" as="geometry" />
        </mxCell>
        <mxCell id="q1A5jmSNmcc6hlyrnBnv-498" style="rounded=0;orthogonalLoop=1;jettySize=auto;html=1;exitX=0.5;exitY=0;exitDx=0;exitDy=0;entryX=0.5;entryY=1;entryDx=0;entryDy=0;endArrow=classic;startFill=0;endFill=1;fontColor=#000000;" parent="1" source="q1A5jmSNmcc6hlyrnBnv-500" target="q1A5jmSNmcc6hlyrnBnv-497" edge="1">
          <mxGeometry relative="1" as="geometry">
            <mxPoint x="874.78" y="274.81999999999994" as="sourcePoint" />
            <mxPoint x="932.28" y="270.81999999999994" as="targetPoint" />
          </mxGeometry>
        </mxCell>
        <mxCell id="q1A5jmSNmcc6hlyrnBnv-499" value="6" style="ellipse;whiteSpace=wrap;html=1;aspect=fixed;fontColor=#999999;strokeColor=#999999;dashed=1;" parent="1" vertex="1">
          <mxGeometry x="1103.53" y="254.81999999999994" width="30" height="30" as="geometry" />
        </mxCell>
        <mxCell id="q1A5jmSNmcc6hlyrnBnv-500" value="3" style="ellipse;whiteSpace=wrap;html=1;aspect=fixed;" parent="1" vertex="1">
          <mxGeometry x="872.28" y="254.81999999999994" width="30" height="30" as="geometry" />
        </mxCell>
        <mxCell id="q1A5jmSNmcc6hlyrnBnv-501" value="4" style="ellipse;whiteSpace=wrap;html=1;aspect=fixed;" parent="1" vertex="1">
          <mxGeometry x="949.78" y="254.81999999999994" width="30" height="30" as="geometry" />
        </mxCell>
        <mxCell id="q1A5jmSNmcc6hlyrnBnv-502" value="5" style="ellipse;whiteSpace=wrap;html=1;aspect=fixed;" parent="1" vertex="1">
          <mxGeometry x="1026.53" y="254.81999999999994" width="30" height="30" as="geometry" />
        </mxCell>
        <mxCell id="q1A5jmSNmcc6hlyrnBnv-503" value="7" style="ellipse;whiteSpace=wrap;html=1;aspect=fixed;fontColor=#999999;strokeColor=#999999;dashed=1;" parent="1" vertex="1">
          <mxGeometry x="1103.53" y="179.81999999999994" width="30" height="30" as="geometry" />
        </mxCell>
        <mxCell id="q1A5jmSNmcc6hlyrnBnv-504" value="8" style="ellipse;whiteSpace=wrap;html=1;aspect=fixed;strokeColor=#999999;dashed=1;fontColor=#999999;" parent="1" vertex="1">
          <mxGeometry x="803.53" y="254.81999999999994" width="30" height="30" as="geometry" />
        </mxCell>
        <mxCell id="q1A5jmSNmcc6hlyrnBnv-505" style="rounded=0;orthogonalLoop=1;jettySize=auto;html=1;exitX=0;exitY=0.5;exitDx=0;exitDy=0;entryX=1;entryY=0.5;entryDx=0;entryDy=0;endArrow=classic;startFill=0;endFill=1;fontColor=#000000;" parent="1" source="q1A5jmSNmcc6hlyrnBnv-501" target="q1A5jmSNmcc6hlyrnBnv-500" edge="1">
          <mxGeometry relative="1" as="geometry">
            <mxPoint x="954.160000000004" y="314.81999999999994" as="sourcePoint" />
            <mxPoint x="892.2800000000032" y="292.31999999999994" as="targetPoint" />
          </mxGeometry>
        </mxCell>
        <mxCell id="q1A5jmSNmcc6hlyrnBnv-506" style="rounded=0;orthogonalLoop=1;jettySize=auto;html=1;exitX=0;exitY=0.5;exitDx=0;exitDy=0;entryX=1;entryY=0.5;entryDx=0;entryDy=0;endArrow=classic;startFill=0;endFill=1;fontColor=#000000;" parent="1" source="q1A5jmSNmcc6hlyrnBnv-502" target="q1A5jmSNmcc6hlyrnBnv-501" edge="1">
          <mxGeometry relative="1" as="geometry">
            <mxPoint x="1061.2812626584812" y="299.5687373415187" as="sourcePoint" />
            <mxPoint x="1024.1599999999958" y="314.81999999999994" as="targetPoint" />
          </mxGeometry>
        </mxCell>
        <mxCell id="q1A5jmSNmcc6hlyrnBnv-507" style="rounded=0;orthogonalLoop=1;jettySize=auto;html=1;exitX=1;exitY=0.5;exitDx=0;exitDy=0;entryX=0;entryY=0.5;entryDx=0;entryDy=0;endArrow=classic;startFill=0;endFill=1;fontColor=#999999;strokeColor=#999999;dashed=1;" parent="1" source="q1A5jmSNmcc6hlyrnBnv-502" target="q1A5jmSNmcc6hlyrnBnv-499" edge="1">
          <mxGeometry relative="1" as="geometry">
            <mxPoint x="1110.7787373415183" y="250.0712626584816" as="sourcePoint" />
            <mxPoint x="892.28" y="280.81999999999994" as="targetPoint" />
          </mxGeometry>
        </mxCell>
        <mxCell id="q1A5jmSNmcc6hlyrnBnv-508" style="rounded=0;orthogonalLoop=1;jettySize=auto;html=1;exitX=0.5;exitY=1;exitDx=0;exitDy=0;entryX=0.5;entryY=0;entryDx=0;entryDy=0;endArrow=classic;startFill=0;endFill=1;fontColor=#999999;strokeColor=#999999;dashed=1;" parent="1" source="q1A5jmSNmcc6hlyrnBnv-503" target="q1A5jmSNmcc6hlyrnBnv-499" edge="1">
          <mxGeometry relative="1" as="geometry">
            <mxPoint x="1197.28" y="344.81999999999994" as="sourcePoint" />
            <mxPoint x="902.28" y="290.81999999999994" as="targetPoint" />
          </mxGeometry>
        </mxCell>
        <mxCell id="q1A5jmSNmcc6hlyrnBnv-509" style="rounded=0;orthogonalLoop=1;jettySize=auto;html=1;exitX=1;exitY=0.5;exitDx=0;exitDy=0;entryX=0;entryY=0.5;entryDx=0;entryDy=0;endArrow=classic;startFill=0;endFill=1;fontColor=#999999;strokeColor=#999999;dashed=1;" parent="1" source="q1A5jmSNmcc6hlyrnBnv-504" target="q1A5jmSNmcc6hlyrnBnv-500" edge="1">
          <mxGeometry relative="1" as="geometry">
            <mxPoint x="862.28" y="279.81999999999994" as="sourcePoint" />
            <mxPoint x="918.28" y="259.81999999999994" as="targetPoint" />
          </mxGeometry>
        </mxCell>
        <mxCell id="q1A5jmSNmcc6hlyrnBnv-510" style="rounded=0;orthogonalLoop=1;jettySize=auto;html=1;entryX=0.5;entryY=0;entryDx=0;entryDy=0;endArrow=classic;startFill=0;exitX=0.5;exitY=1;exitDx=0;exitDy=0;endFill=1;fontColor=#000000;" parent="1" source="q1A5jmSNmcc6hlyrnBnv-496" target="q1A5jmSNmcc6hlyrnBnv-501" edge="1">
          <mxGeometry relative="1" as="geometry">
            <mxPoint x="987.28" y="219.81999999999994" as="sourcePoint" />
            <mxPoint x="989.1600000000001" y="279.81999999999994" as="targetPoint" />
          </mxGeometry>
        </mxCell>
        <mxCell id="q1A5jmSNmcc6hlyrnBnv-511" style="rounded=0;orthogonalLoop=1;jettySize=auto;html=1;exitX=0;exitY=0.5;exitDx=0;exitDy=0;entryX=1;entryY=0.5;entryDx=0;entryDy=0;endArrow=classic;startFill=0;endFill=1;fontColor=#000000;" parent="1" source="q1A5jmSNmcc6hlyrnBnv-496" target="q1A5jmSNmcc6hlyrnBnv-497" edge="1">
          <mxGeometry relative="1" as="geometry" />
        </mxCell>
        <mxCell id="q1A5jmSNmcc6hlyrnBnv-512" value="b" style="text;html=1;align=center;verticalAlign=middle;whiteSpace=wrap;rounded=0;" parent="1" vertex="1">
          <mxGeometry x="966.53" y="223.56999999999994" width="12.56" height="18.75" as="geometry" />
        </mxCell>
        <mxCell id="q1A5jmSNmcc6hlyrnBnv-513" value="a" style="text;html=1;align=center;verticalAlign=middle;whiteSpace=wrap;rounded=0;" parent="1" vertex="1">
          <mxGeometry x="916.1600000000001" y="179.81999999999994" width="20" height="18.75" as="geometry" />
        </mxCell>
        <mxCell id="q1A5jmSNmcc6hlyrnBnv-514" value="d" style="text;html=1;align=center;verticalAlign=middle;whiteSpace=wrap;rounded=0;rotation=0;" parent="1" vertex="1">
          <mxGeometry x="887.1600000000001" y="216.70000000000005" width="15.12" height="30" as="geometry" />
        </mxCell>
        <mxCell id="q1A5jmSNmcc6hlyrnBnv-515" value="d" style="text;html=1;align=center;verticalAlign=middle;whiteSpace=wrap;rounded=0;rotation=0;" parent="1" vertex="1">
          <mxGeometry x="916.1600000000001" y="247.95000000000005" width="20" height="30" as="geometry" />
        </mxCell>
        <mxCell id="q1A5jmSNmcc6hlyrnBnv-516" value="b" style="text;html=1;align=center;verticalAlign=middle;whiteSpace=wrap;rounded=0;rotation=0;strokeColor=none;dashed=1;fontColor=#999999;" parent="1" vertex="1">
          <mxGeometry x="837.9000000000001" y="247.95000000000005" width="18.25" height="30" as="geometry" />
        </mxCell>
        <mxCell id="q1A5jmSNmcc6hlyrnBnv-517" value="a" style="text;html=1;align=center;verticalAlign=middle;whiteSpace=wrap;rounded=0;rotation=0;" parent="1" vertex="1">
          <mxGeometry x="992.4100000000001" y="246.70000000000005" width="20" height="30" as="geometry" />
        </mxCell>
        <mxCell id="q1A5jmSNmcc6hlyrnBnv-518" value="a" style="text;html=1;align=center;verticalAlign=middle;whiteSpace=wrap;rounded=0;rotation=0;fontColor=#999999;strokeColor=none;dashed=1;" parent="1" vertex="1">
          <mxGeometry x="1124.28" y="216.70000000000005" width="9.25" height="30" as="geometry" />
        </mxCell>
        <mxCell id="q1A5jmSNmcc6hlyrnBnv-519" value="b" style="text;html=1;align=center;verticalAlign=middle;whiteSpace=wrap;rounded=0;rotation=0;dashed=1;fontColor=#999999;" parent="1" vertex="1">
          <mxGeometry x="1069.03" y="247.95000000000005" width="13.25" height="30" as="geometry" />
        </mxCell>
        <mxCell id="q1A5jmSNmcc6hlyrnBnv-520" style="rounded=0;orthogonalLoop=1;jettySize=auto;html=1;exitX=1;exitY=0.5;exitDx=0;exitDy=0;curved=1;entryX=0;entryY=0.5;entryDx=0;entryDy=0;fontColor=#000000;" parent="1" source="q1A5jmSNmcc6hlyrnBnv-497" target="q1A5jmSNmcc6hlyrnBnv-496" edge="1">
          <mxGeometry relative="1" as="geometry">
            <mxPoint x="912.2799999999997" y="142.31999999999994" as="sourcePoint" />
            <mxPoint x="902.28" y="152.31999999999994" as="targetPoint" />
            <Array as="points">
              <mxPoint x="922.28" y="212.31999999999994" />
            </Array>
          </mxGeometry>
        </mxCell>
        <mxCell id="q1A5jmSNmcc6hlyrnBnv-521" style="rounded=0;orthogonalLoop=1;jettySize=auto;html=1;exitX=0;exitY=0.5;exitDx=0;exitDy=0;curved=1;strokeColor=#999999;entryX=1;entryY=0.5;entryDx=0;entryDy=0;dashed=1;fontColor=#999999;" parent="1" source="q1A5jmSNmcc6hlyrnBnv-500" target="q1A5jmSNmcc6hlyrnBnv-504" edge="1">
          <mxGeometry relative="1" as="geometry">
            <mxPoint x="885.6600000000001" y="292.31999999999994" as="sourcePoint" />
            <mxPoint x="833.53" y="292.31999999999994" as="targetPoint" />
            <Array as="points">
              <mxPoint x="852.28" y="282.31999999999994" />
            </Array>
          </mxGeometry>
        </mxCell>
        <mxCell id="q1A5jmSNmcc6hlyrnBnv-522" style="rounded=0;orthogonalLoop=1;jettySize=auto;html=1;exitX=1;exitY=0.5;exitDx=0;exitDy=0;curved=1;entryX=0;entryY=0.5;entryDx=0;entryDy=0;fontColor=#000000;" parent="1" source="q1A5jmSNmcc6hlyrnBnv-500" target="q1A5jmSNmcc6hlyrnBnv-501" edge="1">
          <mxGeometry relative="1" as="geometry">
            <mxPoint x="901.78" y="302.31999999999994" as="sourcePoint" />
            <mxPoint x="949.78" y="302.31999999999994" as="targetPoint" />
            <Array as="points">
              <mxPoint x="922.28" y="282.31999999999994" />
            </Array>
          </mxGeometry>
        </mxCell>
        <mxCell id="q1A5jmSNmcc6hlyrnBnv-523" style="rounded=0;orthogonalLoop=1;jettySize=auto;html=1;exitX=1;exitY=0.5;exitDx=0;exitDy=0;curved=1;entryX=0;entryY=0.5;entryDx=0;entryDy=0;fontColor=#000000;" parent="1" source="q1A5jmSNmcc6hlyrnBnv-501" edge="1">
          <mxGeometry relative="1" as="geometry">
            <mxPoint x="979.78" y="270.31999999999994" as="sourcePoint" />
            <mxPoint x="1027.78" y="270.31999999999994" as="targetPoint" />
            <Array as="points">
              <mxPoint x="999.78" y="282.31999999999994" />
            </Array>
          </mxGeometry>
        </mxCell>
        <mxCell id="q1A5jmSNmcc6hlyrnBnv-524" style="rounded=0;orthogonalLoop=1;jettySize=auto;html=1;exitX=0;exitY=0.5;exitDx=0;exitDy=0;curved=1;strokeColor=#999999;entryX=1;entryY=0.5;entryDx=0;entryDy=0;fontColor=#999999;dashed=1;" parent="1" target="q1A5jmSNmcc6hlyrnBnv-502" edge="1">
          <mxGeometry relative="1" as="geometry">
            <mxPoint x="1103.53" y="270.31999999999994" as="sourcePoint" />
            <mxPoint x="1064.53" y="270.31999999999994" as="targetPoint" />
            <Array as="points">
              <mxPoint x="1082.28" y="282.31999999999994" />
            </Array>
          </mxGeometry>
        </mxCell>
        <mxCell id="q1A5jmSNmcc6hlyrnBnv-525" style="rounded=0;orthogonalLoop=1;jettySize=auto;html=1;exitX=0.5;exitY=0;exitDx=0;exitDy=0;curved=1;entryX=0.5;entryY=1;entryDx=0;entryDy=0;fontColor=#000000;" parent="1" source="q1A5jmSNmcc6hlyrnBnv-501" target="q1A5jmSNmcc6hlyrnBnv-496" edge="1">
          <mxGeometry relative="1" as="geometry">
            <mxPoint x="892.28" y="290.31999999999994" as="sourcePoint" />
            <mxPoint x="853.28" y="290.31999999999994" as="targetPoint" />
            <Array as="points">
              <mxPoint x="952.28" y="232.31999999999994" />
            </Array>
          </mxGeometry>
        </mxCell>
        <mxCell id="q1A5jmSNmcc6hlyrnBnv-526" style="rounded=0;orthogonalLoop=1;jettySize=auto;html=1;exitX=0.5;exitY=1;exitDx=0;exitDy=0;curved=1;entryX=0.5;entryY=0;entryDx=0;entryDy=0;fontColor=#000000;" parent="1" source="q1A5jmSNmcc6hlyrnBnv-497" target="q1A5jmSNmcc6hlyrnBnv-500" edge="1">
          <mxGeometry relative="1" as="geometry">
            <mxPoint x="975.28" y="265.31999999999994" as="sourcePoint" />
            <mxPoint x="975.28" y="220.31999999999994" as="targetPoint" />
            <Array as="points">
              <mxPoint x="872.28" y="232.31999999999994" />
            </Array>
          </mxGeometry>
        </mxCell>
        <mxCell id="q1A5jmSNmcc6hlyrnBnv-527" value="&lt;p style=&quot;line-height: 50%;&quot;&gt;&lt;font&gt;&lt;span style=&quot;font-size: 7px;&quot;&gt;reversed b&lt;/span&gt;&lt;/font&gt;&lt;/p&gt;" style="text;html=1;align=center;verticalAlign=middle;whiteSpace=wrap;rounded=0;rotation=-75;" parent="1" vertex="1">
          <mxGeometry x="919.0899999999999" y="223.56999999999994" width="60" height="15" as="geometry" />
        </mxCell>
        <mxCell id="q1A5jmSNmcc6hlyrnBnv-528" value="&lt;p style=&quot;line-height: 50%;&quot;&gt;&lt;font&gt;&lt;span style=&quot;font-size: 7px;&quot;&gt;reversed b&lt;/span&gt;&lt;/font&gt;&lt;/p&gt;" style="text;html=1;align=center;verticalAlign=middle;whiteSpace=wrap;rounded=0;fontColor=#999999;strokeColor=none;dashed=1;" parent="1" vertex="1">
          <mxGeometry x="833.53" y="273.88" width="47.12" height="15" as="geometry" />
        </mxCell>
        <mxCell id="q1A5jmSNmcc6hlyrnBnv-529" value="&lt;p style=&quot;line-height: 50%;&quot;&gt;&lt;font&gt;&lt;span style=&quot;font-size: 7px;&quot;&gt;reversed b&lt;/span&gt;&lt;/font&gt;&lt;/p&gt;" style="text;html=1;align=center;verticalAlign=middle;whiteSpace=wrap;rounded=0;fontColor=#999999;strokeColor=none;dashed=1;" parent="1" vertex="1">
          <mxGeometry x="1056.53" y="276.70000000000005" width="60" height="15" as="geometry" />
        </mxCell>
        <mxCell id="q1A5jmSNmcc6hlyrnBnv-530" value="&lt;p style=&quot;line-height: 50%;&quot;&gt;&lt;font&gt;&lt;span style=&quot;font-size: 7px;&quot;&gt;reversed a&lt;/span&gt;&lt;/font&gt;&lt;/p&gt;" style="text;html=1;align=center;verticalAlign=middle;whiteSpace=wrap;rounded=0;" parent="1" vertex="1">
          <mxGeometry x="979.78" y="276.70000000000005" width="60" height="15" as="geometry" />
        </mxCell>
        <mxCell id="q1A5jmSNmcc6hlyrnBnv-531" value="&lt;p style=&quot;line-height: 50%;&quot;&gt;&lt;font&gt;&lt;span style=&quot;font-size: 7px;&quot;&gt;reversed d&lt;/span&gt;&lt;/font&gt;&lt;/p&gt;" style="text;html=1;align=center;verticalAlign=middle;whiteSpace=wrap;rounded=0;" parent="1" vertex="1">
          <mxGeometry x="896.1600000000001" y="276.70000000000005" width="60" height="15" as="geometry" />
        </mxCell>
        <mxCell id="q1A5jmSNmcc6hlyrnBnv-532" value="&lt;p style=&quot;line-height: 50%;&quot;&gt;&lt;font&gt;&lt;span style=&quot;font-size: 7px;&quot;&gt;reversed d&lt;/span&gt;&lt;/font&gt;&lt;/p&gt;" style="text;html=1;align=center;verticalAlign=middle;whiteSpace=wrap;rounded=0;rotation=-75;" parent="1" vertex="1">
          <mxGeometry x="842.28" y="223.56999999999994" width="60" height="15" as="geometry" />
        </mxCell>
        <mxCell id="q1A5jmSNmcc6hlyrnBnv-533" value="&lt;p style=&quot;line-height: 50%;&quot;&gt;&lt;font&gt;&lt;span style=&quot;font-size: 7px;&quot;&gt;reversed a&lt;/span&gt;&lt;/font&gt;&lt;/p&gt;" style="text;html=1;align=center;verticalAlign=middle;whiteSpace=wrap;rounded=0;" parent="1" vertex="1">
          <mxGeometry x="896.1600000000001" y="201.70000000000005" width="60" height="15" as="geometry" />
        </mxCell>
        <mxCell id="q1A5jmSNmcc6hlyrnBnv-534" value="&lt;p style=&quot;line-height: 50%;&quot;&gt;&lt;font&gt;&lt;span style=&quot;font-size: 7px;&quot;&gt;reversed a&lt;/span&gt;&lt;/font&gt;&lt;/p&gt;" style="text;html=1;align=center;verticalAlign=middle;whiteSpace=wrap;rounded=0;fontColor=#999999;rotation=-60;strokeColor=none;dashed=1;" parent="1" vertex="1">
          <mxGeometry x="1069.03" y="223.56999999999994" width="60" height="15" as="geometry" />
        </mxCell>
        <mxCell id="q1A5jmSNmcc6hlyrnBnv-535" style="rounded=0;orthogonalLoop=1;jettySize=auto;html=1;exitX=0.5;exitY=0;exitDx=0;exitDy=0;curved=1;strokeColor=#999999;entryX=0.5;entryY=1;entryDx=0;entryDy=0;fontColor=#999999;dashed=1;" parent="1" source="q1A5jmSNmcc6hlyrnBnv-499" target="q1A5jmSNmcc6hlyrnBnv-503" edge="1">
          <mxGeometry relative="1" as="geometry">
            <mxPoint x="912.28" y="205.31999999999994" as="sourcePoint" />
            <mxPoint x="960.28" y="205.31999999999994" as="targetPoint" />
            <Array as="points">
              <mxPoint x="1102.28" y="232.31999999999994" />
            </Array>
          </mxGeometry>
        </mxCell>
        <mxCell id="q1A5jmSNmcc6hlyrnBnv-536" value="1" style="ellipse;whiteSpace=wrap;html=1;aspect=fixed;" parent="1" vertex="1">
          <mxGeometry x="908" y="391.62" width="30" height="30" as="geometry" />
        </mxCell>
        <mxCell id="q1A5jmSNmcc6hlyrnBnv-537" value="2" style="ellipse;whiteSpace=wrap;html=1;aspect=fixed;" parent="1" vertex="1">
          <mxGeometry x="830.5" y="391.62" width="30" height="30" as="geometry" />
        </mxCell>
        <mxCell id="q1A5jmSNmcc6hlyrnBnv-538" style="rounded=0;orthogonalLoop=1;jettySize=auto;html=1;exitX=0.5;exitY=0;exitDx=0;exitDy=0;entryX=0.5;entryY=1;entryDx=0;entryDy=0;endArrow=classic;startFill=0;endFill=1;fontColor=#000000;fillColor=#f5f5f5;strokeColor=#999999;" parent="1" source="q1A5jmSNmcc6hlyrnBnv-539" target="q1A5jmSNmcc6hlyrnBnv-537" edge="1">
          <mxGeometry relative="1" as="geometry">
            <mxPoint x="833" y="486.62" as="sourcePoint" />
            <mxPoint x="890.5" y="482.62" as="targetPoint" />
          </mxGeometry>
        </mxCell>
        <mxCell id="q1A5jmSNmcc6hlyrnBnv-539" value="3" style="ellipse;whiteSpace=wrap;html=1;aspect=fixed;" parent="1" vertex="1">
          <mxGeometry x="830.5" y="466.62" width="30" height="30" as="geometry" />
        </mxCell>
        <mxCell id="q1A5jmSNmcc6hlyrnBnv-540" value="4" style="ellipse;whiteSpace=wrap;html=1;aspect=fixed;" parent="1" vertex="1">
          <mxGeometry x="908" y="466.62" width="30" height="30" as="geometry" />
        </mxCell>
        <mxCell id="q1A5jmSNmcc6hlyrnBnv-541" value="5" style="ellipse;whiteSpace=wrap;html=1;aspect=fixed;fillColor=#f5f5f5;fontColor=#999999;strokeColor=#999999;" parent="1" vertex="1">
          <mxGeometry x="984.75" y="466.62" width="30" height="30" as="geometry" />
        </mxCell>
        <mxCell id="q1A5jmSNmcc6hlyrnBnv-542" style="rounded=0;orthogonalLoop=1;jettySize=auto;html=1;exitX=0;exitY=0.5;exitDx=0;exitDy=0;entryX=1;entryY=0.5;entryDx=0;entryDy=0;endArrow=classic;startFill=0;endFill=1;fontColor=#000000;fillColor=#f5f5f5;strokeColor=#999999;" parent="1" source="q1A5jmSNmcc6hlyrnBnv-540" target="q1A5jmSNmcc6hlyrnBnv-539" edge="1">
          <mxGeometry relative="1" as="geometry">
            <mxPoint x="912.3800000000037" y="526.62" as="sourcePoint" />
            <mxPoint x="850.5000000000032" y="504.12" as="targetPoint" />
          </mxGeometry>
        </mxCell>
        <mxCell id="q1A5jmSNmcc6hlyrnBnv-543" style="rounded=0;orthogonalLoop=1;jettySize=auto;html=1;exitX=0;exitY=0.5;exitDx=0;exitDy=0;entryX=1;entryY=0.5;entryDx=0;entryDy=0;endArrow=classic;startFill=0;endFill=1;fontColor=#000000;fillColor=#f5f5f5;strokeColor=#999999;" parent="1" source="q1A5jmSNmcc6hlyrnBnv-541" target="q1A5jmSNmcc6hlyrnBnv-540" edge="1">
          <mxGeometry relative="1" as="geometry">
            <mxPoint x="1019.5012626584812" y="511.3687373415187" as="sourcePoint" />
            <mxPoint x="982.3799999999956" y="526.62" as="targetPoint" />
          </mxGeometry>
        </mxCell>
        <mxCell id="q1A5jmSNmcc6hlyrnBnv-544" style="rounded=0;orthogonalLoop=1;jettySize=auto;html=1;entryX=0.5;entryY=0;entryDx=0;entryDy=0;endArrow=classic;startFill=0;exitX=0.5;exitY=1;exitDx=0;exitDy=0;endFill=1;fontColor=#000000;strokeColor=#999999;" parent="1" source="q1A5jmSNmcc6hlyrnBnv-536" target="q1A5jmSNmcc6hlyrnBnv-540" edge="1">
          <mxGeometry relative="1" as="geometry">
            <mxPoint x="945.5" y="431.62" as="sourcePoint" />
            <mxPoint x="947.3800000000001" y="491.62" as="targetPoint" />
          </mxGeometry>
        </mxCell>
        <mxCell id="q1A5jmSNmcc6hlyrnBnv-545" style="rounded=0;orthogonalLoop=1;jettySize=auto;html=1;exitX=0;exitY=0.5;exitDx=0;exitDy=0;entryX=1;entryY=0.5;entryDx=0;entryDy=0;endArrow=classic;startFill=0;endFill=1;fontColor=#000000;" parent="1" source="q1A5jmSNmcc6hlyrnBnv-536" target="q1A5jmSNmcc6hlyrnBnv-537" edge="1">
          <mxGeometry relative="1" as="geometry" />
        </mxCell>
        <mxCell id="q1A5jmSNmcc6hlyrnBnv-546" value="b" style="text;html=1;align=center;verticalAlign=middle;whiteSpace=wrap;rounded=0;fillColor=none;fontColor=#999999;strokeColor=none;" parent="1" vertex="1">
          <mxGeometry x="924.75" y="435.37" width="12.56" height="18.75" as="geometry" />
        </mxCell>
        <mxCell id="q1A5jmSNmcc6hlyrnBnv-547" value="a" style="text;html=1;align=center;verticalAlign=middle;whiteSpace=wrap;rounded=0;" parent="1" vertex="1">
          <mxGeometry x="874.3800000000001" y="391.62" width="20" height="18.75" as="geometry" />
        </mxCell>
        <mxCell id="q1A5jmSNmcc6hlyrnBnv-548" value="d" style="text;html=1;align=center;verticalAlign=middle;whiteSpace=wrap;rounded=0;rotation=0;fillColor=none;fontColor=#999999;strokeColor=none;" parent="1" vertex="1">
          <mxGeometry x="845.3800000000001" y="428.5" width="15.12" height="30" as="geometry" />
        </mxCell>
        <mxCell id="q1A5jmSNmcc6hlyrnBnv-549" value="d" style="text;html=1;align=center;verticalAlign=middle;whiteSpace=wrap;rounded=0;rotation=0;fillColor=none;fontColor=#999999;strokeColor=none;" parent="1" vertex="1">
          <mxGeometry x="874.3800000000001" y="459.75" width="20" height="30" as="geometry" />
        </mxCell>
        <mxCell id="q1A5jmSNmcc6hlyrnBnv-550" value="a" style="text;html=1;align=center;verticalAlign=middle;whiteSpace=wrap;rounded=0;rotation=0;fillColor=none;fontColor=#999999;strokeColor=none;" parent="1" vertex="1">
          <mxGeometry x="950.6300000000001" y="458.5" width="20" height="30" as="geometry" />
        </mxCell>
        <mxCell id="q1A5jmSNmcc6hlyrnBnv-552" style="rounded=0;orthogonalLoop=1;jettySize=auto;html=1;exitX=1;exitY=0.5;exitDx=0;exitDy=0;curved=1;entryX=0;entryY=0.5;entryDx=0;entryDy=0;fontColor=#000000;fillColor=#f5f5f5;strokeColor=#999999;" parent="1" source="q1A5jmSNmcc6hlyrnBnv-537" target="q1A5jmSNmcc6hlyrnBnv-536" edge="1">
          <mxGeometry relative="1" as="geometry">
            <mxPoint x="870.4999999999995" y="354.12" as="sourcePoint" />
            <mxPoint x="860.5" y="364.12" as="targetPoint" />
            <Array as="points">
              <mxPoint x="880.5" y="424.12" />
            </Array>
          </mxGeometry>
        </mxCell>
        <mxCell id="q1A5jmSNmcc6hlyrnBnv-553" style="rounded=0;orthogonalLoop=1;jettySize=auto;html=1;exitX=1;exitY=0.5;exitDx=0;exitDy=0;curved=1;entryX=0;entryY=0.5;entryDx=0;entryDy=0;fontColor=#000000;" parent="1" source="q1A5jmSNmcc6hlyrnBnv-539" target="q1A5jmSNmcc6hlyrnBnv-540" edge="1">
          <mxGeometry relative="1" as="geometry">
            <mxPoint x="860" y="514.12" as="sourcePoint" />
            <mxPoint x="908" y="514.12" as="targetPoint" />
            <Array as="points">
              <mxPoint x="880.5" y="494.12" />
            </Array>
          </mxGeometry>
        </mxCell>
        <mxCell id="q1A5jmSNmcc6hlyrnBnv-554" style="rounded=0;orthogonalLoop=1;jettySize=auto;html=1;exitX=1;exitY=0.5;exitDx=0;exitDy=0;curved=1;entryX=0;entryY=0.5;entryDx=0;entryDy=0;fontColor=#000000;strokeColor=#999999;" parent="1" source="q1A5jmSNmcc6hlyrnBnv-540" edge="1">
          <mxGeometry relative="1" as="geometry">
            <mxPoint x="938" y="482.12" as="sourcePoint" />
            <mxPoint x="986" y="482.12" as="targetPoint" />
            <Array as="points">
              <mxPoint x="958" y="494.12" />
            </Array>
          </mxGeometry>
        </mxCell>
        <mxCell id="q1A5jmSNmcc6hlyrnBnv-555" style="rounded=0;orthogonalLoop=1;jettySize=auto;html=1;exitX=0.5;exitY=0;exitDx=0;exitDy=0;curved=1;entryX=0.5;entryY=1;entryDx=0;entryDy=0;fontColor=#000000;fillColor=#f5f5f5;strokeColor=#999999;" parent="1" source="q1A5jmSNmcc6hlyrnBnv-540" target="q1A5jmSNmcc6hlyrnBnv-536" edge="1">
          <mxGeometry relative="1" as="geometry">
            <mxPoint x="850.5" y="502.12" as="sourcePoint" />
            <mxPoint x="811.5" y="502.12" as="targetPoint" />
            <Array as="points">
              <mxPoint x="910.5" y="444.12" />
            </Array>
          </mxGeometry>
        </mxCell>
        <mxCell id="q1A5jmSNmcc6hlyrnBnv-556" style="rounded=0;orthogonalLoop=1;jettySize=auto;html=1;exitX=0.5;exitY=1;exitDx=0;exitDy=0;curved=1;entryX=0.5;entryY=0;entryDx=0;entryDy=0;fontColor=#000000;" parent="1" source="q1A5jmSNmcc6hlyrnBnv-537" target="q1A5jmSNmcc6hlyrnBnv-539" edge="1">
          <mxGeometry relative="1" as="geometry">
            <mxPoint x="933.5" y="477.12" as="sourcePoint" />
            <mxPoint x="933.5" y="432.12" as="targetPoint" />
            <Array as="points">
              <mxPoint x="830.5" y="444.12" />
            </Array>
          </mxGeometry>
        </mxCell>
        <mxCell id="q1A5jmSNmcc6hlyrnBnv-557" value="&lt;p style=&quot;line-height: 50%;&quot;&gt;&lt;font&gt;&lt;span style=&quot;font-size: 7px;&quot;&gt;reversed b&lt;/span&gt;&lt;/font&gt;&lt;/p&gt;" style="text;html=1;align=center;verticalAlign=middle;whiteSpace=wrap;rounded=0;rotation=-75;fillColor=none;fontColor=#999999;strokeColor=none;" parent="1" vertex="1">
          <mxGeometry x="877.31" y="435.37" width="60" height="15" as="geometry" />
        </mxCell>
        <mxCell id="q1A5jmSNmcc6hlyrnBnv-558" value="&lt;p style=&quot;line-height: 50%;&quot;&gt;&lt;font&gt;&lt;span style=&quot;font-size: 7px;&quot;&gt;reversed a&lt;/span&gt;&lt;/font&gt;&lt;/p&gt;" style="text;html=1;align=center;verticalAlign=middle;whiteSpace=wrap;rounded=0;fillColor=none;fontColor=#999999;strokeColor=none;" parent="1" vertex="1">
          <mxGeometry x="938" y="488.5" width="60" height="15" as="geometry" />
        </mxCell>
        <mxCell id="q1A5jmSNmcc6hlyrnBnv-559" value="&lt;p style=&quot;line-height: 50%;&quot;&gt;&lt;font&gt;&lt;span style=&quot;font-size: 7px;&quot;&gt;reversed d&lt;/span&gt;&lt;/font&gt;&lt;/p&gt;" style="text;html=1;align=center;verticalAlign=middle;whiteSpace=wrap;rounded=0;" parent="1" vertex="1">
          <mxGeometry x="854.3800000000001" y="488.5" width="60" height="15" as="geometry" />
        </mxCell>
        <mxCell id="q1A5jmSNmcc6hlyrnBnv-560" value="&lt;p style=&quot;line-height: 50%;&quot;&gt;&lt;font&gt;&lt;span style=&quot;font-size: 7px;&quot;&gt;reversed d&lt;/span&gt;&lt;/font&gt;&lt;/p&gt;" style="text;html=1;align=center;verticalAlign=middle;whiteSpace=wrap;rounded=0;rotation=-75;" parent="1" vertex="1">
          <mxGeometry x="800.5" y="435.37" width="60" height="15" as="geometry" />
        </mxCell>
        <mxCell id="q1A5jmSNmcc6hlyrnBnv-561" value="&lt;p style=&quot;line-height: 50%;&quot;&gt;&lt;font&gt;&lt;span style=&quot;font-size: 7px;&quot;&gt;reversed a&lt;/span&gt;&lt;/font&gt;&lt;/p&gt;" style="text;html=1;align=center;verticalAlign=middle;whiteSpace=wrap;rounded=0;fillColor=none;fontColor=#999999;strokeColor=none;" parent="1" vertex="1">
          <mxGeometry x="854.3800000000001" y="413.5" width="60" height="15" as="geometry" />
        </mxCell>
        <mxCell id="q1A5jmSNmcc6hlyrnBnv-562" value="do not include:&lt;div&gt;already selected&amp;nbsp;&lt;/div&gt;&lt;div&gt;edge `a` from node `1`&lt;/div&gt;" style="text;html=1;align=left;verticalAlign=middle;whiteSpace=wrap;rounded=0;" parent="1" vertex="1">
          <mxGeometry x="951.5" y="427.12" width="138.5" height="30" as="geometry" />
        </mxCell>
        <mxCell id="q1A5jmSNmcc6hlyrnBnv-564" value="&lt;div&gt;&lt;font style=&quot;font-size: 39px;&quot;&gt;}&lt;/font&gt;&lt;/div&gt;" style="text;html=1;align=left;verticalAlign=middle;whiteSpace=wrap;rounded=0;container=0;" parent="1" vertex="1">
          <mxGeometry x="935.3799999999999" y="401" width="10" height="76.25" as="geometry" />
        </mxCell>
        <mxCell id="q1A5jmSNmcc6hlyrnBnv-565" value="&lt;div&gt;&lt;font style=&quot;font-size: 39px;&quot;&gt;}&lt;/font&gt;&lt;/div&gt;" style="text;html=1;align=left;verticalAlign=middle;whiteSpace=wrap;rounded=0;container=0;rotation=90;" parent="1" vertex="1">
          <mxGeometry x="979" y="466.62" width="10" height="76.25" as="geometry" />
        </mxCell>
        <mxCell id="q1A5jmSNmcc6hlyrnBnv-566" value="do not include:&amp;nbsp;&lt;span style=&quot;background-color: transparent;&quot;&gt;limit of length&lt;/span&gt;" style="text;html=1;align=left;verticalAlign=middle;whiteSpace=wrap;rounded=0;" parent="1" vertex="1">
          <mxGeometry x="943.5" y="504.87" width="250" height="30" as="geometry" />
        </mxCell>
        <mxCell id="q1A5jmSNmcc6hlyrnBnv-567" value="&lt;font style=&quot;forced-color-adjust: none; color: rgb(0, 0, 0); font-family: Helvetica; font-size: 12px; font-style: normal; font-variant-ligatures: normal; font-variant-caps: normal; letter-spacing: normal; orphans: 2; text-align: left; text-indent: 0px; text-transform: none; widows: 2; word-spacing: 0px; -webkit-text-stroke-width: 0px; white-space: normal; background-color: rgb(251, 251, 251); text-decoration-thickness: initial; text-decoration-style: initial; text-decoration-color: initial;&quot;&gt;&lt;b&gt;5. Final sequence:&lt;/b&gt;&lt;/font&gt;&lt;font style=&quot;forced-color-adjust: none; color: rgb(0, 0, 0); font-family: Helvetica; font-size: 12px; font-style: normal; font-variant-ligatures: normal; font-variant-caps: normal; font-weight: 400; letter-spacing: normal; orphans: 2; text-align: left; text-indent: 0px; text-transform: none; widows: 2; word-spacing: 0px; -webkit-text-stroke-width: 0px; white-space: normal; background-color: rgb(251, 251, 251); text-decoration-thickness: initial; text-decoration-style: initial; text-decoration-color: initial;&quot;&gt;&amp;nbsp;&lt;/font&gt;&lt;div&gt;&lt;font style=&quot;forced-color-adjust: none; color: rgb(0, 0, 0); font-family: Helvetica; font-size: 12px; font-style: normal; font-variant-ligatures: normal; font-variant-caps: normal; font-weight: 400; letter-spacing: normal; orphans: 2; text-align: left; text-indent: 0px; text-transform: none; widows: 2; word-spacing: 0px; -webkit-text-stroke-width: 0px; white-space: normal; background-color: rgb(251, 251, 251); text-decoration-thickness: initial; text-decoration-style: initial; text-decoration-color: initial;&quot;&gt;`1` - `a` - `2 - `reversed d` - `3` - `reversed d` - `4`&lt;/font&gt;&lt;/div&gt;" style="text;whiteSpace=wrap;html=1;" parent="1" vertex="1">
          <mxGeometry x="800.28" y="516.87" width="320" height="37.13" as="geometry" />
        </mxCell>
        <mxCell id="q1A5jmSNmcc6hlyrnBnv-41" value="" style="rounded=1;whiteSpace=wrap;html=1;arcSize=7;" parent="1" vertex="1">
          <mxGeometry x="758.25" y="-550" width="411.75" height="371" as="geometry" />
        </mxCell>
        <mxCell id="q1A5jmSNmcc6hlyrnBnv-69" value="&lt;div&gt;&lt;font style=&quot;color: rgb(0, 0, 0);&quot;&gt;1-a-2&lt;br&gt;&lt;/font&gt;&lt;/div&gt;&lt;span&gt;&lt;span&gt;&lt;font style=&quot;color: rgb(0, 0, 0);&quot;&gt;1-b-5&lt;/font&gt;&lt;/span&gt;&lt;/span&gt;&lt;div&gt;&lt;span style=&quot;background-color: transparent; color: rgb(130, 179, 102);&quot;&gt;&lt;font style=&quot;color: rgb(0, 0, 0);&quot;&gt;3-d-6&lt;/font&gt;&lt;/span&gt;&lt;/div&gt;&lt;div&gt;&lt;span style=&quot;background-color: transparent; color: rgb(130, 179, 102);&quot;&gt;&lt;font style=&quot;color: rgb(0, 0, 0);&quot;&gt;5-d-6&lt;/font&gt;&lt;/span&gt;&lt;/div&gt;" style="text;html=1;align=left;verticalAlign=middle;whiteSpace=wrap;rounded=0;container=0;" parent="1" vertex="1">
          <mxGeometry x="800.53" y="-253" width="120" height="67.05" as="geometry" />
        </mxCell>
        <mxCell id="q1A5jmSNmcc6hlyrnBnv-75" value="&lt;font style=&quot;font-size: 20px;&quot;&gt;&lt;b style=&quot;&quot;&gt;&lt;font style=&quot;&quot;&gt;A.&amp;nbsp;&lt;/font&gt;&lt;/b&gt;&lt;/font&gt;" style="text;html=1;align=left;verticalAlign=middle;whiteSpace=wrap;rounded=0;" parent="1" vertex="1">
          <mxGeometry x="768.75" y="-550" width="31.25" height="30" as="geometry" />
        </mxCell>
        <mxCell id="q1A5jmSNmcc6hlyrnBnv-28" value="&lt;br&gt;&lt;div&gt;&lt;font style=&quot;color: rgb(213, 181, 85);&quot;&gt;1-a-2&lt;/font&gt;&lt;/div&gt;&lt;div&gt;&lt;font color=&quot;#d5b555&quot;&gt;1-a-3&lt;/font&gt;&lt;/div&gt;&lt;div&gt;&lt;font color=&quot;#b85450&quot;&gt;1-c-4&amp;nbsp;&amp;nbsp;&lt;/font&gt;&lt;b style=&quot;background-color: transparent;&quot;&gt;}&amp;nbsp;&lt;/b&gt;&lt;span style=&quot;background-color: transparent;&quot;&gt;exclude, since `c`&lt;/span&gt;&lt;sub style=&quot;background-color: transparent;&quot;&gt;&amp;nbsp;&lt;/sub&gt;&lt;span style=&quot;background-color: transparent;&quot;&gt;is banned&lt;/span&gt;&lt;/div&gt;&lt;span style=&quot;color: rgb(184, 84, 80);&quot;&gt;&lt;span style=&quot;color: rgb(130, 179, 102);&quot;&gt;1-b-5&amp;nbsp;&amp;nbsp;&lt;/span&gt;&lt;/span&gt;&lt;b&gt;}&amp;nbsp;&lt;/b&gt;&lt;span style=&quot;background-color: transparent;&quot;&gt;include, this triplet is okay&lt;/span&gt;&lt;div&gt;&lt;span style=&quot;background-color: transparent; color: rgb(130, 179, 102);&quot;&gt;3-d-6&lt;/span&gt;&lt;/div&gt;&lt;div&gt;&lt;span style=&quot;background-color: transparent; color: rgb(130, 179, 102);&quot;&gt;5-d-6&lt;/span&gt;&lt;br&gt;&lt;/div&gt;" style="text;html=1;align=left;verticalAlign=middle;whiteSpace=wrap;rounded=0;container=0;" parent="1" vertex="1">
          <mxGeometry x="800.53" y="-385" width="210" height="125" as="geometry" />
        </mxCell>
        <mxCell id="q1A5jmSNmcc6hlyrnBnv-29" value="&lt;div&gt;&lt;br&gt;&lt;/div&gt;" style="text;html=1;align=left;verticalAlign=middle;whiteSpace=wrap;rounded=0;container=0;" parent="1" vertex="1">
          <mxGeometry x="940.53" y="-330" width="180" height="35" as="geometry" />
        </mxCell>
        <mxCell id="q1A5jmSNmcc6hlyrnBnv-30" value="&lt;div&gt;&lt;font style=&quot;color: rgb(0, 0, 0);&quot;&gt;&lt;span style=&quot;background-color: transparent;&quot;&gt;`1-a` occurs 2 times, choose randomly&lt;/span&gt;&lt;/font&gt;&lt;br&gt;&lt;/div&gt;" style="text;html=1;align=left;verticalAlign=middle;whiteSpace=wrap;rounded=0;container=0;" parent="1" vertex="1">
          <mxGeometry x="842.53" y="-361" width="260" height="30" as="geometry" />
        </mxCell>
        <mxCell id="q1A5jmSNmcc6hlyrnBnv-31" value="&lt;div&gt;&lt;font style=&quot;font-size: 24px;&quot;&gt;}&lt;/font&gt;&lt;/div&gt;" style="text;html=1;align=left;verticalAlign=middle;whiteSpace=wrap;rounded=0;container=0;" parent="1" vertex="1">
          <mxGeometry x="834.53" y="-368" width="10" height="40" as="geometry" />
        </mxCell>
        <mxCell id="q1A5jmSNmcc6hlyrnBnv-201" value="&lt;div&gt;these 2 are fine: &amp;lt;node&amp;gt;+&amp;lt;prop&amp;gt; are unique&lt;br&gt;&lt;/div&gt;" style="text;html=1;align=left;verticalAlign=middle;whiteSpace=wrap;rounded=0;container=0;" parent="1" vertex="1">
          <mxGeometry x="842.53" y="-300" width="260" height="30" as="geometry" />
        </mxCell>
        <mxCell id="q1A5jmSNmcc6hlyrnBnv-202" value="&lt;div&gt;&lt;font style=&quot;font-size: 24px;&quot;&gt;}&lt;/font&gt;&lt;/div&gt;" style="text;html=1;align=left;verticalAlign=middle;whiteSpace=wrap;rounded=0;container=0;" parent="1" vertex="1">
          <mxGeometry x="834.53" y="-307" width="10" height="40" as="geometry" />
        </mxCell>
        <mxCell id="q1A5jmSNmcc6hlyrnBnv-85" value="&lt;b&gt;3. Final list&lt;/b&gt;" style="text;html=1;align=left;verticalAlign=middle;whiteSpace=wrap;rounded=0;container=0;" parent="1" vertex="1">
          <mxGeometry x="800.28" y="-270" width="270" height="30" as="geometry" />
        </mxCell>
        <mxCell id="q1A5jmSNmcc6hlyrnBnv-44" value="&lt;b&gt;2. Go through every triplet, check conditions&lt;/b&gt;" style="text;html=1;align=left;verticalAlign=middle;whiteSpace=wrap;rounded=0;container=0;" parent="1" vertex="1">
          <mxGeometry x="800.28" y="-388" width="270" height="30" as="geometry" />
        </mxCell>
        <mxCell id="q1A5jmSNmcc6hlyrnBnv-43" value="&lt;b&gt;1. Graph and exclusion list initialization&lt;/b&gt;" style="text;html=1;align=left;verticalAlign=middle;whiteSpace=wrap;rounded=0;" parent="1" vertex="1">
          <mxGeometry x="800.28" y="-550" width="230" height="30" as="geometry" />
        </mxCell>
        <mxCell id="_vsgigm9-OEJQFCsossO-5" value="" style="group" vertex="1" connectable="0" parent="1">
          <mxGeometry x="800" y="-520" width="246.5" height="135" as="geometry" />
        </mxCell>
        <mxCell id="q1A5jmSNmcc6hlyrnBnv-1" value="&lt;font style=&quot;color: rgb(184, 84, 80);&quot;&gt;TO_EXCLUDE = [c, e]&lt;/font&gt;" style="text;html=1;align=center;verticalAlign=middle;whiteSpace=wrap;rounded=0;" parent="_vsgigm9-OEJQFCsossO-5" vertex="1">
          <mxGeometry y="100" width="130" height="30" as="geometry" />
        </mxCell>
        <mxCell id="q1A5jmSNmcc6hlyrnBnv-9" style="rounded=0;orthogonalLoop=1;jettySize=auto;html=1;entryX=0;entryY=0.5;entryDx=0;entryDy=0;exitX=1;exitY=0.5;exitDx=0;exitDy=0;fillColor=#fff2cc;strokeColor=#d6b656;" parent="_vsgigm9-OEJQFCsossO-5" source="q1A5jmSNmcc6hlyrnBnv-2" target="q1A5jmSNmcc6hlyrnBnv-4" edge="1">
          <mxGeometry relative="1" as="geometry" />
        </mxCell>
        <mxCell id="q1A5jmSNmcc6hlyrnBnv-14" style="rounded=0;orthogonalLoop=1;jettySize=auto;html=1;entryX=0;entryY=0.5;entryDx=0;entryDy=0;fillColor=#f8cecc;strokeColor=#b85450;exitX=1;exitY=0.5;exitDx=0;exitDy=0;" parent="_vsgigm9-OEJQFCsossO-5" source="q1A5jmSNmcc6hlyrnBnv-2" target="q1A5jmSNmcc6hlyrnBnv-5" edge="1">
          <mxGeometry relative="1" as="geometry" />
        </mxCell>
        <mxCell id="q1A5jmSNmcc6hlyrnBnv-15" style="rounded=0;orthogonalLoop=1;jettySize=auto;html=1;entryX=0;entryY=0.5;entryDx=0;entryDy=0;fillColor=#d5e8d4;strokeColor=#82b366;exitX=1;exitY=0.5;exitDx=0;exitDy=0;" parent="_vsgigm9-OEJQFCsossO-5" source="q1A5jmSNmcc6hlyrnBnv-2" target="q1A5jmSNmcc6hlyrnBnv-6" edge="1">
          <mxGeometry relative="1" as="geometry" />
        </mxCell>
        <mxCell id="q1A5jmSNmcc6hlyrnBnv-2" value="1" style="rounded=1;whiteSpace=wrap;html=1;arcSize=50;" parent="_vsgigm9-OEJQFCsossO-5" vertex="1">
          <mxGeometry x="37.5" y="52.5" width="30" height="30" as="geometry" />
        </mxCell>
        <mxCell id="q1A5jmSNmcc6hlyrnBnv-16" style="rounded=0;orthogonalLoop=1;jettySize=auto;html=1;entryX=0;entryY=0.5;entryDx=0;entryDy=0;exitX=1;exitY=0.5;exitDx=0;exitDy=0;fillColor=#d5e8d4;strokeColor=#82b366;" parent="_vsgigm9-OEJQFCsossO-5" source="q1A5jmSNmcc6hlyrnBnv-3" target="q1A5jmSNmcc6hlyrnBnv-7" edge="1">
          <mxGeometry relative="1" as="geometry" />
        </mxCell>
        <mxCell id="q1A5jmSNmcc6hlyrnBnv-3" value="3" style="rounded=1;whiteSpace=wrap;html=1;arcSize=50;" parent="_vsgigm9-OEJQFCsossO-5" vertex="1">
          <mxGeometry x="142.22000000000003" y="35" width="30" height="30" as="geometry" />
        </mxCell>
        <mxCell id="q1A5jmSNmcc6hlyrnBnv-4" value="2" style="rounded=1;whiteSpace=wrap;html=1;arcSize=50;" parent="_vsgigm9-OEJQFCsossO-5" vertex="1">
          <mxGeometry x="142.22000000000003" width="30" height="30" as="geometry" />
        </mxCell>
        <mxCell id="q1A5jmSNmcc6hlyrnBnv-5" value="4" style="rounded=1;whiteSpace=wrap;html=1;arcSize=50;" parent="_vsgigm9-OEJQFCsossO-5" vertex="1">
          <mxGeometry x="142.22000000000003" y="70" width="30" height="30" as="geometry" />
        </mxCell>
        <mxCell id="q1A5jmSNmcc6hlyrnBnv-17" style="rounded=0;orthogonalLoop=1;jettySize=auto;html=1;entryX=0;entryY=0.5;entryDx=0;entryDy=0;exitX=1;exitY=0.5;exitDx=0;exitDy=0;fillColor=#d5e8d4;strokeColor=#82b366;" parent="_vsgigm9-OEJQFCsossO-5" source="q1A5jmSNmcc6hlyrnBnv-6" target="q1A5jmSNmcc6hlyrnBnv-7" edge="1">
          <mxGeometry relative="1" as="geometry" />
        </mxCell>
        <mxCell id="q1A5jmSNmcc6hlyrnBnv-6" value="5" style="rounded=1;whiteSpace=wrap;html=1;arcSize=50;" parent="_vsgigm9-OEJQFCsossO-5" vertex="1">
          <mxGeometry x="142.22000000000003" y="105" width="30" height="30" as="geometry" />
        </mxCell>
        <mxCell id="q1A5jmSNmcc6hlyrnBnv-7" value="6" style="rounded=1;whiteSpace=wrap;html=1;arcSize=50;" parent="_vsgigm9-OEJQFCsossO-5" vertex="1">
          <mxGeometry x="216.5" y="70" width="30" height="30" as="geometry" />
        </mxCell>
        <mxCell id="q1A5jmSNmcc6hlyrnBnv-12" style="rounded=0;orthogonalLoop=1;jettySize=auto;html=1;entryX=0;entryY=0.5;entryDx=0;entryDy=0;exitX=1;exitY=0.5;exitDx=0;exitDy=0;fillColor=#fff2cc;strokeColor=#d6b656;" parent="_vsgigm9-OEJQFCsossO-5" source="q1A5jmSNmcc6hlyrnBnv-2" target="q1A5jmSNmcc6hlyrnBnv-3" edge="1">
          <mxGeometry relative="1" as="geometry">
            <mxPoint x="32.5" y="85" as="sourcePoint" />
            <mxPoint x="152.5" y="25" as="targetPoint" />
          </mxGeometry>
        </mxCell>
        <mxCell id="q1A5jmSNmcc6hlyrnBnv-19" value="&lt;font color=&quot;#d5b555&quot;&gt;a&lt;/font&gt;" style="text;html=1;align=center;verticalAlign=middle;whiteSpace=wrap;rounded=0;" parent="_vsgigm9-OEJQFCsossO-5" vertex="1">
          <mxGeometry x="91.25" y="2" width="60" height="30" as="geometry" />
        </mxCell>
        <mxCell id="q1A5jmSNmcc6hlyrnBnv-22" value="&lt;font color=&quot;#d5b555&quot;&gt;a&lt;/font&gt;" style="text;html=1;align=center;verticalAlign=middle;whiteSpace=wrap;rounded=0;" parent="_vsgigm9-OEJQFCsossO-5" vertex="1">
          <mxGeometry x="91.25" y="30" width="60" height="30" as="geometry" />
        </mxCell>
        <mxCell id="q1A5jmSNmcc6hlyrnBnv-23" value="&lt;font color=&quot;#b85450&quot;&gt;c&lt;/font&gt;" style="text;html=1;align=center;verticalAlign=middle;whiteSpace=wrap;rounded=0;" parent="_vsgigm9-OEJQFCsossO-5" vertex="1">
          <mxGeometry x="91.25" y="55" width="60" height="30" as="geometry" />
        </mxCell>
        <mxCell id="q1A5jmSNmcc6hlyrnBnv-24" value="&lt;font color=&quot;#82b366&quot;&gt;b&lt;/font&gt;" style="text;html=1;align=center;verticalAlign=middle;whiteSpace=wrap;rounded=0;" parent="_vsgigm9-OEJQFCsossO-5" vertex="1">
          <mxGeometry x="91.25" y="81" width="60" height="30" as="geometry" />
        </mxCell>
        <mxCell id="q1A5jmSNmcc6hlyrnBnv-25" value="&lt;font color=&quot;#82b366&quot;&gt;d&lt;/font&gt;" style="text;html=1;align=center;verticalAlign=middle;whiteSpace=wrap;rounded=0;" parent="_vsgigm9-OEJQFCsossO-5" vertex="1">
          <mxGeometry x="181.25" y="40" width="24.72" height="30" as="geometry" />
        </mxCell>
        <mxCell id="_vsgigm9-OEJQFCsossO-2" value="&lt;font color=&quot;#82b366&quot;&gt;d&lt;/font&gt;" style="text;html=1;align=center;verticalAlign=middle;whiteSpace=wrap;rounded=0;" vertex="1" parent="_vsgigm9-OEJQFCsossO-5">
          <mxGeometry x="181.25" y="75" width="24.72" height="30" as="geometry" />
        </mxCell>
      </root>
    </mxGraphModel>
  </diagram>
</mxfile>
